<svg version="1.0" preserveAspectRatio="xMidYMid meet" viewBox="26.531249999999996 144.59999652960002 322.5 79.499998092" zoomAndPan="magnify" xmlns:xlink="http://www.w3.org/1999/xlink" xmlns="http://www.w3.org/2000/svg" style="max-height: 500px" width="322.5" height="79.499998092"><defs><g/></defs><g fill-opacity="1" fill="#037ef3"><g transform="translate(27.959399, 203.653196)"><g><path d="M 35.484375 -52.203125 L 56.1875 -9.421875 C 57.0625 -7.691406 57.5 -6.390625 57.5 -5.515625 C 57.5 -3.679688 56.015625 -2.019531 53.046875 -0.53125 C 51.304688 0.332031 49.9375 0.765625 48.9375 0.765625 C 47.945312 0.765625 47.128906 0.535156 46.484375 0.078125 C 45.847656 -0.378906 45.390625 -0.863281 45.109375 -1.375 C 44.828125 -1.882812 44.429688 -2.648438 43.921875 -3.671875 L 39.9375 -11.953125 L 18.703125 -11.953125 L 14.71875 -3.671875 C 14.207031 -2.648438 13.8125 -1.910156 13.53125 -1.453125 C 13.25 -0.992188 12.785156 -0.519531 12.140625 -0.03125 C 11.503906 0.445312 10.6875 0.6875 9.6875 0.6875 C 8.695312 0.6875 7.332031 0.253906 5.59375 -0.609375 C 2.632812 -2.046875 1.15625 -3.679688 1.15625 -5.515625 C 1.15625 -6.390625 1.585938 -7.691406 2.453125 -9.421875 L 23.15625 -52.28125 C 23.71875 -53.457031 24.570312 -54.398438 25.71875 -55.109375 C 26.863281 -55.828125 28.078125 -56.1875 29.359375 -56.1875 C 32.117188 -56.1875 34.160156 -54.859375 35.484375 -52.203125 Z M 29.28125 -33.8125 L 24.21875 -23.296875 L 34.421875 -23.296875 Z M 29.28125 -33.8125"/></g></g></g><g fill-opacity="1" fill="#037ef3"><g transform="translate(86.588164, 203.653196)"><g><path d="M 29.28125 -36.109375 C 29.59375 -38.960938 31.613281 -40.390625 35.34375 -40.390625 C 37.332031 -40.390625 38.8125 -40.238281 39.78125 -39.9375 C 40.75 -39.632812 41.425781 -39.097656 41.8125 -38.328125 C 42.195312 -37.554688 42.425781 -36.878906 42.5 -36.296875 C 42.582031 -35.710938 42.625 -34.832031 42.625 -33.65625 L 42.625 -6.828125 C 42.625 -5.648438 42.582031 -4.765625 42.5 -4.171875 C 42.425781 -3.585938 42.210938 -2.910156 41.859375 -2.140625 C 41.140625 -0.816406 39.382812 -0.15625 36.59375 -0.15625 C 33.8125 -0.15625 31.945312 -0.5 31 -1.1875 C 30.0625 -1.875 29.515625 -2.882812 29.359375 -4.21875 C 27.460938 -1.507812 24.304688 -0.15625 19.890625 -0.15625 C 15.472656 -0.15625 11.375 -2.171875 7.59375 -6.203125 C 3.8125 -10.242188 1.921875 -14.929688 1.921875 -20.265625 C 1.921875 -25.609375 3.820312 -30.285156 7.625 -34.296875 C 11.4375 -38.316406 15.613281 -40.328125 20.15625 -40.328125 C 21.894531 -40.328125 23.476562 -40.019531 24.90625 -39.40625 C 26.34375 -38.789062 27.34375 -38.210938 27.90625 -37.671875 C 28.46875 -37.140625 28.925781 -36.617188 29.28125 -36.109375 Z M 15.328125 -20.15625 C 15.328125 -18.46875 15.988281 -16.945312 17.3125 -15.59375 C 18.644531 -14.238281 20.253906 -13.5625 22.140625 -13.5625 C 24.035156 -13.5625 25.609375 -14.25 26.859375 -15.625 C 28.117188 -17.007812 28.75 -18.53125 28.75 -20.1875 C 28.75 -21.851562 28.144531 -23.398438 26.9375 -24.828125 C 25.738281 -26.265625 24.128906 -26.984375 22.109375 -26.984375 C 20.097656 -26.984375 18.460938 -26.265625 17.203125 -24.828125 C 15.953125 -23.398438 15.328125 -21.84375 15.328125 -20.15625 Z M 15.328125 -20.15625"/></g></g></g><g fill-opacity="1" fill="#037ef3"><g transform="translate(132.26496, 203.653196)"><g><path d="M 30.5 -39.9375 C 31.476562 -39.632812 32.285156 -39.109375 32.921875 -38.359375 C 33.554688 -37.617188 33.875 -36.429688 33.875 -34.796875 C 33.875 -33.160156 33.390625 -31.367188 32.421875 -29.421875 C 31.453125 -27.484375 30.046875 -26.515625 28.203125 -26.515625 C 27.285156 -26.515625 26.40625 -26.71875 25.5625 -27.125 C 24.71875 -27.539062 23.601562 -27.75 22.21875 -27.75 C 20.84375 -27.75 19.554688 -27.265625 18.359375 -26.296875 C 17.160156 -25.328125 16.5625 -24.148438 16.5625 -22.765625 L 16.5625 -6.671875 C 16.5625 -5.492188 16.519531 -4.609375 16.4375 -4.015625 C 16.363281 -3.429688 16.125 -2.757812 15.71875 -2 C 14.945312 -0.664062 12.953125 0 9.734375 0 C 7.285156 0 5.523438 -0.429688 4.453125 -1.296875 C 3.628906 -2.015625 3.164062 -3.113281 3.0625 -4.59375 C 3.0625 -5.101562 3.0625 -5.847656 3.0625 -6.828125 L 3.0625 -33.734375 C 3.0625 -34.898438 3.097656 -35.773438 3.171875 -36.359375 C 3.253906 -36.953125 3.472656 -37.609375 3.828125 -38.328125 C 4.546875 -39.703125 6.539062 -40.390625 9.8125 -40.390625 C 12.875 -40.390625 14.789062 -39.804688 15.5625 -38.640625 C 16.125 -37.816406 16.40625 -36.972656 16.40625 -36.109375 C 16.65625 -36.460938 17.023438 -36.894531 17.515625 -37.40625 C 18.003906 -37.914062 19.039062 -38.601562 20.625 -39.46875 C 22.207031 -40.34375 23.597656 -40.78125 24.796875 -40.78125 C 25.992188 -40.78125 27 -40.710938 27.8125 -40.578125 C 28.632812 -40.453125 29.53125 -40.238281 30.5 -39.9375 Z M 30.5 -39.9375"/></g></g></g><g fill-opacity="1" fill="#037ef3"><g transform="translate(167.288944, 203.653196)"><g><path d="M 40.625 -39.9375 C 43.644531 -38.601562 45.15625 -36.992188 45.15625 -35.109375 C 45.15625 -34.191406 44.945312 -33.320312 44.53125 -32.5 C 44.125 -31.6875 43.921875 -31.253906 43.921875 -31.203125 L 23.84375 13.71875 C 23.4375 14.6875 23.09375 15.425781 22.8125 15.9375 C 22.53125 16.457031 22.082031 16.945312 21.46875 17.40625 C 20.851562 17.863281 20.082031 18.09375 19.15625 18.09375 C 18.238281 18.09375 16.882812 17.707031 15.09375 16.9375 C 12.082031 15.613281 10.578125 14.03125 10.578125 12.1875 C 10.578125 10.957031 13.03125 5.109375 17.9375 -5.359375 L 2.6875 -31.046875 C 1.664062 -32.734375 1.15625 -33.984375 1.15625 -34.796875 C 1.15625 -36.429688 2.535156 -38.066406 5.296875 -39.703125 C 7.023438 -40.722656 8.375 -41.234375 9.34375 -41.234375 C 10.320312 -41.234375 11.113281 -41.03125 11.71875 -40.625 C 12.332031 -40.21875 12.78125 -39.796875 13.0625 -39.359375 C 13.34375 -38.929688 14.75 -36.554688 17.28125 -32.234375 C 19.8125 -27.910156 22.226562 -23.882812 24.53125 -20.15625 C 24.78125 -20.976562 26.15625 -24.132812 28.65625 -29.625 C 31.164062 -35.125 32.507812 -38.050781 32.6875 -38.40625 C 32.875 -38.757812 33.171875 -39.191406 33.578125 -39.703125 C 34.242188 -40.578125 35.175781 -41.015625 36.375 -41.015625 C 37.570312 -41.015625 38.988281 -40.65625 40.625 -39.9375 Z M 40.625 -39.9375"/></g></g></g><g fill-opacity="1" fill="#037ef3"><g transform="translate(213.578849, 203.653196)"><g><path d="M 29.28125 -36.109375 C 29.59375 -38.960938 31.613281 -40.390625 35.34375 -40.390625 C 37.332031 -40.390625 38.8125 -40.238281 39.78125 -39.9375 C 40.75 -39.632812 41.425781 -39.097656 41.8125 -38.328125 C 42.195312 -37.554688 42.425781 -36.878906 42.5 -36.296875 C 42.582031 -35.710938 42.625 -34.832031 42.625 -33.65625 L 42.625 -6.828125 C 42.625 -5.648438 42.582031 -4.765625 42.5 -4.171875 C 42.425781 -3.585938 42.210938 -2.910156 41.859375 -2.140625 C 41.140625 -0.816406 39.382812 -0.15625 36.59375 -0.15625 C 33.8125 -0.15625 31.945312 -0.5 31 -1.1875 C 30.0625 -1.875 29.515625 -2.882812 29.359375 -4.21875 C 27.460938 -1.507812 24.304688 -0.15625 19.890625 -0.15625 C 15.472656 -0.15625 11.375 -2.171875 7.59375 -6.203125 C 3.8125 -10.242188 1.921875 -14.929688 1.921875 -20.265625 C 1.921875 -25.609375 3.820312 -30.285156 7.625 -34.296875 C 11.4375 -38.316406 15.613281 -40.328125 20.15625 -40.328125 C 21.894531 -40.328125 23.476562 -40.019531 24.90625 -39.40625 C 26.34375 -38.789062 27.34375 -38.210938 27.90625 -37.671875 C 28.46875 -37.140625 28.925781 -36.617188 29.28125 -36.109375 Z M 15.328125 -20.15625 C 15.328125 -18.46875 15.988281 -16.945312 17.3125 -15.59375 C 18.644531 -14.238281 20.253906 -13.5625 22.140625 -13.5625 C 24.035156 -13.5625 25.609375 -14.25 26.859375 -15.625 C 28.117188 -17.007812 28.75 -18.53125 28.75 -20.1875 C 28.75 -21.851562 28.144531 -23.398438 26.9375 -24.828125 C 25.738281 -26.265625 24.128906 -26.984375 22.109375 -26.984375 C 20.097656 -26.984375 18.460938 -26.265625 17.203125 -24.828125 C 15.953125 -23.398438 15.328125 -21.84375 15.328125 -20.15625 Z M 15.328125 -20.15625"/></g></g></g><g fill-opacity="1" fill="#037ef3"><g transform="translate(259.25668, 203.653196)"><g/></g></g><g fill-opacity="1" fill="#ffffff"><g transform="translate(261.985531, 199.182639)"><g><path d="M 6.859375 -4.6875 L 15.46875 -4.6875 C 16.164062 -4.6875 16.671875 -4.601562 16.984375 -4.4375 C 17.296875 -4.28125 17.503906 -4.03125 17.609375 -3.6875 C 17.710938 -3.351562 17.765625 -2.90625 17.765625 -2.34375 C 17.765625 -1.789062 17.710938 -1.34375 17.609375 -1 C 17.503906 -0.664062 17.328125 -0.4375 17.078125 -0.3125 C 16.679688 -0.101562 16.132812 0 15.4375 0 L 4.046875 0 C 2.566406 0 1.703125 -0.398438 1.453125 -1.203125 C 1.328125 -1.535156 1.265625 -2.070312 1.265625 -2.8125 L 1.265625 -20.390625 C 1.265625 -20.878906 1.28125 -21.242188 1.3125 -21.484375 C 1.34375 -21.734375 1.441406 -22.015625 1.609375 -22.328125 C 1.910156 -22.898438 2.734375 -23.1875 4.078125 -23.1875 C 5.554688 -23.1875 6.429688 -22.796875 6.703125 -22.015625 C 6.804688 -21.648438 6.859375 -21.097656 6.859375 -20.359375 Z M 6.859375 -4.6875"/></g></g></g><g fill-opacity="1" fill="#ffffff"><g transform="translate(280.537087, 199.182639)"><g><path d="M 14.640625 -21.53125 L 23.1875 -3.890625 C 23.539062 -3.171875 23.71875 -2.632812 23.71875 -2.28125 C 23.71875 -1.519531 23.109375 -0.832031 21.890625 -0.21875 C 21.171875 0.132812 20.601562 0.3125 20.1875 0.3125 C 19.78125 0.3125 19.441406 0.21875 19.171875 0.03125 C 18.910156 -0.15625 18.722656 -0.351562 18.609375 -0.5625 C 18.492188 -0.78125 18.332031 -1.097656 18.125 -1.515625 L 16.484375 -4.9375 L 7.71875 -4.9375 L 6.078125 -1.515625 C 5.859375 -1.097656 5.691406 -0.789062 5.578125 -0.59375 C 5.460938 -0.40625 5.273438 -0.210938 5.015625 -0.015625 C 4.753906 0.179688 4.414062 0.28125 4 0.28125 C 3.59375 0.28125 3.03125 0.101562 2.3125 -0.25 C 1.082031 -0.84375 0.46875 -1.519531 0.46875 -2.28125 C 0.46875 -2.632812 0.648438 -3.171875 1.015625 -3.890625 L 9.546875 -21.5625 C 9.785156 -22.050781 10.140625 -22.441406 10.609375 -22.734375 C 11.085938 -23.035156 11.585938 -23.1875 12.109375 -23.1875 C 13.242188 -23.1875 14.085938 -22.632812 14.640625 -21.53125 Z M 12.078125 -13.953125 L 10 -9.609375 L 14.203125 -9.609375 Z M 12.078125 -13.953125"/></g></g></g><g fill-opacity="1" fill="#ffffff"><g transform="translate(304.714155, 199.182639)"><g><path d="M 17.765625 -12.421875 C 19.015625 -10.953125 19.640625 -9.300781 19.640625 -7.46875 C 19.597656 -5.351562 18.875 -3.582031 17.46875 -2.15625 C 16.070312 -0.738281 14.367188 -0.03125 12.359375 -0.03125 L 4.046875 -0.03125 C 2.566406 -0.03125 1.703125 -0.429688 1.453125 -1.234375 C 1.328125 -1.585938 1.265625 -2.132812 1.265625 -2.875 L 1.265625 -20.4375 C 1.265625 -20.9375 1.28125 -21.300781 1.3125 -21.53125 C 1.34375 -21.769531 1.441406 -22.046875 1.609375 -22.359375 C 1.910156 -22.929688 2.734375 -23.21875 4.078125 -23.21875 L 12.046875 -23.21875 C 13.984375 -23.21875 15.609375 -22.539062 16.921875 -21.1875 C 18.285156 -19.820312 18.96875 -18.175781 18.96875 -16.25 C 18.96875 -14.863281 18.566406 -13.585938 17.765625 -12.421875 Z M 14.046875 -7.78125 C 14.046875 -8.28125 13.984375 -8.675781 13.859375 -8.96875 C 13.742188 -9.269531 13.550781 -9.484375 13.28125 -9.609375 C 12.863281 -9.773438 12.273438 -9.859375 11.515625 -9.859375 C 10.753906 -9.859375 10.179688 -10.003906 9.796875 -10.296875 C 9.421875 -10.597656 9.234375 -11.207031 9.234375 -12.125 C 9.234375 -13.039062 9.425781 -13.644531 9.8125 -13.9375 C 10.207031 -14.238281 10.859375 -14.390625 11.765625 -14.390625 C 12.609375 -14.390625 13.113281 -14.609375 13.28125 -15.046875 C 13.34375 -15.285156 13.375 -15.664062 13.375 -16.1875 C 13.375 -16.71875 13.195312 -17.085938 12.84375 -17.296875 C 12.5 -17.503906 11.984375 -17.609375 11.296875 -17.609375 L 6.859375 -17.609375 L 6.859375 -5.625 L 12.046875 -5.625 C 13.378906 -5.625 14.046875 -6.34375 14.046875 -7.78125 Z M 14.046875 -7.78125"/></g></g></g><g fill-opacity="1" fill="#ffffff"><g transform="translate(325.130348, 199.182639)"><g><path d="M 1.609375 -3.25 C 1.066406 -3.925781 0.796875 -4.53125 0.796875 -5.0625 C 0.796875 -5.601562 1.25 -6.316406 2.15625 -7.203125 C 2.675781 -7.710938 3.234375 -7.96875 3.828125 -7.96875 C 4.421875 -7.96875 5.242188 -7.441406 6.296875 -6.390625 C 6.585938 -6.023438 7.003906 -5.679688 7.546875 -5.359375 C 8.097656 -5.035156 8.609375 -4.875 9.078125 -4.875 C 11.035156 -4.875 12.015625 -5.675781 12.015625 -7.28125 C 12.015625 -7.757812 11.742188 -8.160156 11.203125 -8.484375 C 10.671875 -8.816406 10.003906 -9.054688 9.203125 -9.203125 C 8.398438 -9.347656 7.535156 -9.582031 6.609375 -9.90625 C 5.679688 -10.238281 4.816406 -10.625 4.015625 -11.0625 C 3.210938 -11.507812 2.539062 -12.210938 2 -13.171875 C 1.46875 -14.128906 1.203125 -15.285156 1.203125 -16.640625 C 1.203125 -18.492188 1.890625 -20.109375 3.265625 -21.484375 C 4.648438 -22.867188 6.535156 -23.5625 8.921875 -23.5625 C 10.179688 -23.5625 11.332031 -23.394531 12.375 -23.0625 C 13.425781 -22.738281 14.148438 -22.410156 14.546875 -22.078125 L 15.34375 -21.46875 C 15.988281 -20.863281 16.3125 -20.347656 16.3125 -19.921875 C 16.3125 -19.503906 16.0625 -18.925781 15.5625 -18.1875 C 14.84375 -17.132812 14.101562 -16.609375 13.34375 -16.609375 C 12.90625 -16.609375 12.359375 -16.816406 11.703125 -17.234375 C 11.640625 -17.273438 11.515625 -17.378906 11.328125 -17.546875 C 11.148438 -17.722656 10.988281 -17.863281 10.84375 -17.96875 C 10.40625 -18.238281 9.84375 -18.375 9.15625 -18.375 C 8.46875 -18.375 7.894531 -18.207031 7.4375 -17.875 C 6.988281 -17.550781 6.765625 -17.097656 6.765625 -16.515625 C 6.765625 -15.941406 7.03125 -15.472656 7.5625 -15.109375 C 8.101562 -14.753906 8.773438 -14.515625 9.578125 -14.390625 C 10.378906 -14.265625 11.253906 -14.066406 12.203125 -13.796875 C 13.148438 -13.535156 14.023438 -13.210938 14.828125 -12.828125 C 15.628906 -12.453125 16.296875 -11.796875 16.828125 -10.859375 C 17.367188 -9.921875 17.640625 -8.765625 17.640625 -7.390625 C 17.640625 -6.023438 17.363281 -4.820312 16.8125 -3.78125 C 16.269531 -2.738281 15.554688 -1.929688 14.671875 -1.359375 C 12.960938 -0.242188 11.140625 0.3125 9.203125 0.3125 C 8.210938 0.3125 7.273438 0.191406 6.390625 -0.046875 C 5.503906 -0.285156 4.785156 -0.585938 4.234375 -0.953125 C 3.117188 -1.617188 2.335938 -2.269531 1.890625 -2.90625 Z M 1.609375 -3.25"/></g></g></g></svg>