<svg xmlns="http://www.w3.org/2000/svg" xmlns:xlink="http://www.w3.org/1999/xlink" width="500" zoomAndPan="magnify" viewBox="0 0 375 374.999991" height="500" preserveAspectRatio="xMidYMid meet" version="1.0"><defs><g/></defs><g fill="#ffffff" fill-opacity="1"><g transform="translate(50.000226, 197.135704)"><g><path d="M 30.71875 -45.1875 L 48.640625 -8.15625 C 49.390625 -6.65625 49.765625 -5.53125 49.765625 -4.78125 C 49.765625 -3.1875 48.484375 -1.75 45.921875 -0.46875 C 44.421875 0.28125 43.238281 0.65625 42.375 0.65625 C 41.507812 0.65625 40.800781 0.457031 40.25 0.0625 C 39.695312 -0.332031 39.296875 -0.75 39.046875 -1.1875 C 38.804688 -1.632812 38.46875 -2.300781 38.03125 -3.1875 L 34.578125 -10.359375 L 16.1875 -10.359375 L 12.734375 -3.1875 C 12.296875 -2.300781 11.953125 -1.65625 11.703125 -1.25 C 11.460938 -0.851562 11.066406 -0.445312 10.515625 -0.03125 C 9.960938 0.382812 9.253906 0.59375 8.390625 0.59375 C 7.523438 0.59375 6.34375 0.21875 4.84375 -0.53125 C 2.28125 -1.769531 1 -3.1875 1 -4.78125 C 1 -5.53125 1.375 -6.65625 2.125 -8.15625 L 20.046875 -45.25 C 20.523438 -46.269531 21.257812 -47.085938 22.25 -47.703125 C 23.25 -48.328125 24.304688 -48.640625 25.421875 -48.640625 C 27.804688 -48.640625 29.570312 -47.488281 30.71875 -45.1875 Z M 25.34375 -29.265625 L 20.96875 -20.171875 L 29.796875 -20.171875 Z M 25.34375 -29.265625 "/></g></g></g><g fill="#ffffff" fill-opacity="1"><g transform="translate(100.763408, 197.135704)"><g><path d="M 25.34375 -31.25 C 25.613281 -33.726562 27.363281 -34.96875 30.59375 -34.96875 C 32.3125 -34.96875 33.59375 -34.832031 34.4375 -34.5625 C 35.28125 -34.300781 35.867188 -33.835938 36.203125 -33.171875 C 36.535156 -32.515625 36.734375 -31.929688 36.796875 -31.421875 C 36.859375 -30.910156 36.890625 -30.144531 36.890625 -29.125 L 36.890625 -5.90625 C 36.890625 -4.882812 36.859375 -4.117188 36.796875 -3.609375 C 36.734375 -3.109375 36.546875 -2.523438 36.234375 -1.859375 C 35.609375 -0.703125 34.085938 -0.125 31.671875 -0.125 C 29.265625 -0.125 27.648438 -0.421875 26.828125 -1.015625 C 26.015625 -1.617188 25.546875 -2.5 25.421875 -3.65625 C 23.773438 -1.300781 21.039062 -0.125 17.21875 -0.125 C 13.394531 -0.125 9.84375 -1.875 6.5625 -5.375 C 3.289062 -8.875 1.65625 -12.929688 1.65625 -17.546875 C 1.65625 -22.171875 3.300781 -26.21875 6.59375 -29.6875 C 9.894531 -33.164062 13.515625 -34.90625 17.453125 -34.90625 C 18.953125 -34.90625 20.320312 -34.640625 21.5625 -34.109375 C 22.800781 -33.578125 23.664062 -33.078125 24.15625 -32.609375 C 24.644531 -32.148438 25.039062 -31.695312 25.34375 -31.25 Z M 13.265625 -17.453125 C 13.265625 -15.992188 13.835938 -14.675781 14.984375 -13.5 C 16.140625 -12.332031 17.535156 -11.75 19.171875 -11.75 C 20.816406 -11.75 22.179688 -12.34375 23.265625 -13.53125 C 24.347656 -14.726562 24.890625 -16.046875 24.890625 -17.484375 C 24.890625 -18.921875 24.367188 -20.257812 23.328125 -21.5 C 22.285156 -22.738281 20.890625 -23.359375 19.140625 -23.359375 C 17.398438 -23.359375 15.984375 -22.738281 14.890625 -21.5 C 13.804688 -20.257812 13.265625 -18.910156 13.265625 -17.453125 Z M 13.265625 -17.453125 "/></g></g></g><g fill="#ffffff" fill-opacity="1"><g transform="translate(140.312241, 197.135704)"><g><path d="M 26.40625 -34.5625 C 27.25 -34.300781 27.945312 -33.847656 28.5 -33.203125 C 29.050781 -32.566406 29.328125 -31.539062 29.328125 -30.125 C 29.328125 -28.707031 28.90625 -27.15625 28.0625 -25.46875 C 27.226562 -23.789062 26.015625 -22.953125 24.421875 -22.953125 C 23.617188 -22.953125 22.851562 -23.128906 22.125 -23.484375 C 21.394531 -23.835938 20.429688 -24.015625 19.234375 -24.015625 C 18.046875 -24.015625 16.929688 -23.59375 15.890625 -22.75 C 14.847656 -21.914062 14.328125 -20.898438 14.328125 -19.703125 L 14.328125 -5.765625 C 14.328125 -4.753906 14.296875 -3.992188 14.234375 -3.484375 C 14.171875 -2.972656 13.960938 -2.382812 13.609375 -1.71875 C 12.941406 -0.570312 11.210938 0 8.421875 0 C 6.304688 0 4.78125 -0.375 3.84375 -1.125 C 3.132812 -1.75 2.738281 -2.703125 2.65625 -3.984375 C 2.65625 -4.421875 2.65625 -5.0625 2.65625 -5.90625 L 2.65625 -29.203125 C 2.65625 -30.210938 2.6875 -30.972656 2.75 -31.484375 C 2.820312 -31.992188 3.007812 -32.554688 3.3125 -33.171875 C 3.9375 -34.367188 5.664062 -34.96875 8.5 -34.96875 C 11.144531 -34.96875 12.800781 -34.457031 13.46875 -33.4375 C 13.957031 -32.738281 14.203125 -32.007812 14.203125 -31.25 C 14.421875 -31.5625 14.738281 -31.9375 15.15625 -32.375 C 15.582031 -32.820312 16.476562 -33.421875 17.84375 -34.171875 C 19.21875 -34.921875 20.425781 -35.296875 21.46875 -35.296875 C 22.507812 -35.296875 23.382812 -35.238281 24.09375 -35.125 C 24.800781 -35.019531 25.570312 -34.832031 26.40625 -34.5625 Z M 26.40625 -34.5625 "/></g></g></g><g fill="#ffffff" fill-opacity="1"><g transform="translate(170.637439, 197.135704)"><g><path d="M 35.171875 -34.578125 C 37.773438 -33.421875 39.078125 -32.023438 39.078125 -30.390625 C 39.078125 -29.597656 38.898438 -28.847656 38.546875 -28.140625 C 38.203125 -27.429688 38.03125 -27.054688 38.03125 -27.015625 L 20.640625 11.875 C 20.285156 12.71875 19.984375 13.359375 19.734375 13.796875 C 19.492188 14.242188 19.109375 14.664062 18.578125 15.0625 C 18.046875 15.457031 17.378906 15.65625 16.578125 15.65625 C 15.785156 15.65625 14.617188 15.328125 13.078125 14.671875 C 10.460938 13.515625 9.15625 12.140625 9.15625 10.546875 C 9.15625 9.484375 11.28125 4.421875 15.53125 -4.640625 L 2.328125 -26.875 C 1.441406 -28.332031 1 -29.414062 1 -30.125 C 1 -31.539062 2.191406 -32.957031 4.578125 -34.375 C 6.078125 -35.257812 7.25 -35.703125 8.09375 -35.703125 C 8.9375 -35.703125 9.625 -35.523438 10.15625 -35.171875 C 10.6875 -34.816406 11.070312 -34.453125 11.3125 -34.078125 C 11.550781 -33.703125 12.765625 -31.644531 14.953125 -27.90625 C 17.148438 -24.164062 19.242188 -20.679688 21.234375 -17.453125 C 21.453125 -18.160156 22.644531 -20.890625 24.8125 -25.640625 C 26.976562 -30.398438 28.140625 -32.929688 28.296875 -33.234375 C 28.453125 -33.546875 28.707031 -33.925781 29.0625 -34.375 C 29.632812 -35.125 30.441406 -35.5 31.484375 -35.5 C 32.523438 -35.5 33.753906 -35.191406 35.171875 -34.578125 Z M 35.171875 -34.578125 "/></g></g></g><g fill="#ffffff" fill-opacity="1"><g transform="translate(210.717134, 197.135704)"><g><path d="M 25.34375 -31.25 C 25.613281 -33.726562 27.363281 -34.96875 30.59375 -34.96875 C 32.3125 -34.96875 33.59375 -34.832031 34.4375 -34.5625 C 35.28125 -34.300781 35.867188 -33.835938 36.203125 -33.171875 C 36.535156 -32.515625 36.734375 -31.929688 36.796875 -31.421875 C 36.859375 -30.910156 36.890625 -30.144531 36.890625 -29.125 L 36.890625 -5.90625 C 36.890625 -4.882812 36.859375 -4.117188 36.796875 -3.609375 C 36.734375 -3.109375 36.546875 -2.523438 36.234375 -1.859375 C 35.609375 -0.703125 34.085938 -0.125 31.671875 -0.125 C 29.265625 -0.125 27.648438 -0.421875 26.828125 -1.015625 C 26.015625 -1.617188 25.546875 -2.5 25.421875 -3.65625 C 23.773438 -1.300781 21.039062 -0.125 17.21875 -0.125 C 13.394531 -0.125 9.84375 -1.875 6.5625 -5.375 C 3.289062 -8.875 1.65625 -12.929688 1.65625 -17.546875 C 1.65625 -22.171875 3.300781 -26.21875 6.59375 -29.6875 C 9.894531 -33.164062 13.515625 -34.90625 17.453125 -34.90625 C 18.953125 -34.90625 20.320312 -34.640625 21.5625 -34.109375 C 22.800781 -33.578125 23.664062 -33.078125 24.15625 -32.609375 C 24.644531 -32.148438 25.039062 -31.695312 25.34375 -31.25 Z M 13.265625 -17.453125 C 13.265625 -15.992188 13.835938 -14.675781 14.984375 -13.5 C 16.140625 -12.332031 17.535156 -11.75 19.171875 -11.75 C 20.816406 -11.75 22.179688 -12.34375 23.265625 -13.53125 C 24.347656 -14.726562 24.890625 -16.046875 24.890625 -17.484375 C 24.890625 -18.921875 24.367188 -20.257812 23.328125 -21.5 C 22.285156 -22.738281 20.890625 -23.359375 19.140625 -23.359375 C 17.398438 -23.359375 15.984375 -22.738281 14.890625 -21.5 C 13.804688 -20.257812 13.265625 -18.910156 13.265625 -17.453125 Z M 13.265625 -17.453125 "/></g></g></g><g fill="#ffffff" fill-opacity="1"><g transform="translate(250.271736, 197.135704)"><g/></g></g><g fill="#ffffff" fill-opacity="1"><g transform="translate(250.673048, 195.982262)"><g><path d="M 5.25 -3.578125 L 11.8125 -3.578125 C 12.351562 -3.578125 12.742188 -3.515625 12.984375 -3.390625 C 13.222656 -3.273438 13.378906 -3.085938 13.453125 -2.828125 C 13.535156 -2.566406 13.578125 -2.222656 13.578125 -1.796875 C 13.578125 -1.367188 13.535156 -1.023438 13.453125 -0.765625 C 13.378906 -0.515625 13.242188 -0.335938 13.046875 -0.234375 C 12.742188 -0.078125 12.328125 0 11.796875 0 L 3.09375 0 C 1.96875 0 1.304688 -0.304688 1.109375 -0.921875 C 1.015625 -1.179688 0.96875 -1.59375 0.96875 -2.15625 L 0.96875 -15.59375 C 0.96875 -15.957031 0.976562 -16.234375 1 -16.421875 C 1.03125 -16.609375 1.109375 -16.820312 1.234375 -17.0625 C 1.460938 -17.5 2.09375 -17.71875 3.125 -17.71875 C 4.25 -17.71875 4.914062 -17.421875 5.125 -16.828125 C 5.207031 -16.546875 5.25 -16.125 5.25 -15.5625 Z M 5.25 -3.578125 "/></g></g></g><g fill="#ffffff" fill-opacity="1"><g transform="translate(264.859839, 195.982262)"><g><path d="M 11.1875 -16.46875 L 17.71875 -2.96875 C 17.988281 -2.425781 18.125 -2.015625 18.125 -1.734375 C 18.125 -1.160156 17.660156 -0.640625 16.734375 -0.171875 C 16.179688 0.0976562 15.75 0.234375 15.4375 0.234375 C 15.125 0.234375 14.863281 0.160156 14.65625 0.015625 C 14.457031 -0.117188 14.3125 -0.265625 14.21875 -0.421875 C 14.132812 -0.585938 14.007812 -0.832031 13.84375 -1.15625 L 12.59375 -3.765625 L 5.890625 -3.765625 L 4.640625 -1.15625 C 4.484375 -0.832031 4.359375 -0.597656 4.265625 -0.453125 C 4.179688 -0.304688 4.035156 -0.15625 3.828125 0 C 3.628906 0.144531 3.375 0.21875 3.0625 0.21875 C 2.75 0.21875 2.316406 0.0820312 1.765625 -0.1875 C 0.828125 -0.644531 0.359375 -1.160156 0.359375 -1.734375 C 0.359375 -2.015625 0.5 -2.425781 0.78125 -2.96875 L 7.296875 -16.484375 C 7.472656 -16.859375 7.742188 -17.15625 8.109375 -17.375 C 8.472656 -17.601562 8.851562 -17.71875 9.25 -17.71875 C 10.125 -17.71875 10.769531 -17.300781 11.1875 -16.46875 Z M 9.234375 -10.65625 L 7.640625 -7.34375 L 10.859375 -7.34375 Z M 9.234375 -10.65625 "/></g></g></g><g fill="#ffffff" fill-opacity="1"><g transform="translate(283.348586, 195.982262)"><g><path d="M 13.578125 -9.5 C 14.535156 -8.375 15.015625 -7.109375 15.015625 -5.703125 C 14.984375 -4.085938 14.429688 -2.738281 13.359375 -1.65625 C 12.285156 -0.570312 10.984375 -0.03125 9.453125 -0.03125 L 3.09375 -0.03125 C 1.96875 -0.03125 1.304688 -0.332031 1.109375 -0.9375 C 1.015625 -1.21875 0.96875 -1.640625 0.96875 -2.203125 L 0.96875 -15.609375 C 0.96875 -15.992188 0.976562 -16.273438 1 -16.453125 C 1.03125 -16.640625 1.109375 -16.851562 1.234375 -17.09375 C 1.460938 -17.519531 2.09375 -17.734375 3.125 -17.734375 L 9.203125 -17.734375 C 10.691406 -17.734375 11.9375 -17.21875 12.9375 -16.1875 C 13.976562 -15.144531 14.5 -13.890625 14.5 -12.421875 C 14.5 -11.359375 14.191406 -10.382812 13.578125 -9.5 Z M 10.734375 -5.953125 C 10.734375 -6.335938 10.6875 -6.640625 10.59375 -6.859375 C 10.507812 -7.085938 10.363281 -7.25 10.15625 -7.34375 C 9.832031 -7.476562 9.378906 -7.546875 8.796875 -7.546875 C 8.210938 -7.546875 7.773438 -7.65625 7.484375 -7.875 C 7.203125 -8.101562 7.0625 -8.566406 7.0625 -9.265625 C 7.0625 -9.972656 7.207031 -10.4375 7.5 -10.65625 C 7.800781 -10.882812 8.296875 -11 8.984375 -11 C 9.628906 -11 10.019531 -11.164062 10.15625 -11.5 C 10.195312 -11.675781 10.21875 -11.96875 10.21875 -12.375 C 10.21875 -12.78125 10.082031 -13.0625 9.8125 -13.21875 C 9.550781 -13.382812 9.15625 -13.46875 8.625 -13.46875 L 5.25 -13.46875 L 5.25 -4.296875 L 9.203125 -4.296875 C 10.222656 -4.296875 10.734375 -4.847656 10.734375 -5.953125 Z M 10.734375 -5.953125 "/></g></g></g><g fill="#ffffff" fill-opacity="1"><g transform="translate(298.961308, 195.982262)"><g><path d="M 1.234375 -2.484375 C 0.816406 -3.003906 0.609375 -3.46875 0.609375 -3.875 C 0.609375 -4.289062 0.953125 -4.835938 1.640625 -5.515625 C 2.046875 -5.898438 2.472656 -6.09375 2.921875 -6.09375 C 3.378906 -6.09375 4.007812 -5.6875 4.8125 -4.875 C 5.039062 -4.601562 5.363281 -4.34375 5.78125 -4.09375 C 6.195312 -3.84375 6.582031 -3.71875 6.9375 -3.71875 C 8.4375 -3.71875 9.1875 -4.332031 9.1875 -5.5625 C 9.1875 -5.925781 8.976562 -6.234375 8.5625 -6.484375 C 8.15625 -6.734375 7.644531 -6.914062 7.03125 -7.03125 C 6.414062 -7.144531 5.753906 -7.328125 5.046875 -7.578125 C 4.335938 -7.828125 3.675781 -8.117188 3.0625 -8.453125 C 2.457031 -8.796875 1.945312 -9.332031 1.53125 -10.0625 C 1.125 -10.800781 0.921875 -11.6875 0.921875 -12.71875 C 0.921875 -14.132812 1.445312 -15.367188 2.5 -16.421875 C 3.550781 -17.484375 4.988281 -18.015625 6.8125 -18.015625 C 7.78125 -18.015625 8.660156 -17.890625 9.453125 -17.640625 C 10.253906 -17.390625 10.8125 -17.132812 11.125 -16.875 L 11.71875 -16.40625 C 12.21875 -15.945312 12.46875 -15.554688 12.46875 -15.234375 C 12.46875 -14.910156 12.273438 -14.46875 11.890625 -13.90625 C 11.347656 -13.09375 10.785156 -12.6875 10.203125 -12.6875 C 9.859375 -12.6875 9.4375 -12.847656 8.9375 -13.171875 C 8.894531 -13.203125 8.800781 -13.28125 8.65625 -13.40625 C 8.519531 -13.539062 8.398438 -13.648438 8.296875 -13.734375 C 7.953125 -13.941406 7.519531 -14.046875 7 -14.046875 C 6.476562 -14.046875 6.039062 -13.921875 5.6875 -13.671875 C 5.34375 -13.421875 5.171875 -13.070312 5.171875 -12.625 C 5.171875 -12.1875 5.375 -11.828125 5.78125 -11.546875 C 6.195312 -11.273438 6.710938 -11.09375 7.328125 -11 C 7.941406 -10.90625 8.609375 -10.753906 9.328125 -10.546875 C 10.054688 -10.347656 10.722656 -10.101562 11.328125 -9.8125 C 11.941406 -9.519531 12.453125 -9.015625 12.859375 -8.296875 C 13.273438 -7.585938 13.484375 -6.707031 13.484375 -5.65625 C 13.484375 -4.601562 13.273438 -3.675781 12.859375 -2.875 C 12.441406 -2.082031 11.894531 -1.472656 11.21875 -1.046875 C 9.90625 -0.191406 8.507812 0.234375 7.03125 0.234375 C 6.269531 0.234375 5.550781 0.144531 4.875 -0.03125 C 4.207031 -0.21875 3.660156 -0.445312 3.234375 -0.71875 C 2.378906 -1.238281 1.785156 -1.738281 1.453125 -2.21875 Z M 1.234375 -2.484375 "/></g></g></g></svg>